<svg width="571" height="707" viewBox="0 0 571 707" fill="none" xmlns="http://www.w3.org/2000/svg">
<g clip-path="url(#clip0_17_2)">
<path d="M285.04 706.2C442.463 706.2 570.08 687.741 570.08 664.97C570.08 642.199 442.463 623.74 285.04 623.74C127.617 623.74 0 642.199 0 664.97C0 687.741 127.617 706.2 285.04 706.2Z" fill="#78A0A0"/>
<path d="M128.42 641.72C121.41 647 114.15 653.2 112.24 661.77C110.86 667.97 113.3 675.46 119.17 677.87C119.24 682.41 122.96 686.26 127.21 687.87C137.36 691.71 148.24 685.21 157.14 679C169.36 670.47 181.59 661.94 193.81 653.42C199.62 649.36 206.09 644.07 205.77 636.99C205.61 633.41 203.65 630.16 201.33 627.43C193.93 618.73 178.22 611.35 166.83 616.06C153.46 621.59 139.94 633.06 128.42 641.73V641.72Z" fill="#FFF9E9"/>
<path d="M119.17 677.87C119.17 677.87 118.21 674.23 121.41 669.12C124.61 664.01 130.73 660.29 130.73 660.29C130.73 660.29 123.47 661.9 119.99 664.59C116.5 667.28 114.83 674.49 114.83 674.49C114.83 674.49 115.16 676.08 116.51 677.04C117.86 678 119.17 677.86 119.17 677.86V677.87Z" fill="#DDD8CE"/>
<path d="M397.62 344.8C397.62 344.8 396.91 338.98 394.65 333.05C391.4 324.5 378.58 324.5 378.58 324.5L373 365.72L382.34 375.44L393.79 365.87L397.62 344.8Z" fill="#AA3C37"/>
<path d="M173.27 323.15C173.27 323.15 173.44 317.83 180.79 312.36C188.14 306.89 194.64 308.09 194.64 308.09L191.39 353.73H178.9L173.28 323.15H173.27Z" fill="#AA3C37"/>
<path d="M479.27 571.67C496.88 562.41 512.57 549.91 527.51 536.77C534.45 530.67 541.39 524.23 545.58 516C548.47 510.31 552.28 502.56 558.49 504.03C561.47 507.25 559.6 512.42 557.49 516.27C533.35 560.23 494.65 596.03 448.95 616.68C439.52 620.94 429.52 624.63 419.18 624.49C417.07 624.46 414.9 624.26 413.02 623.31C409.41 621.49 407.61 617.33 406.98 613.34C404.62 598.31 414.02 586.18 428.24 586.11C445.92 586.03 463.79 579.81 479.27 571.67Z" fill="#DDD8CE"/>
<path d="M447.68 450.97C453.13 450.06 458.92 449.85 463.99 452.05C474.78 456.72 478.5 470.19 478.75 481.95C479.22 504.57 471.9 526.58 463.85 547.73C455.32 570.15 445.87 592.22 435.54 613.88C432.03 621.23 427.71 629.2 420.03 631.91C412.04 634.73 402.87 630.53 397.59 623.91C392.3 617.29 390.14 608.74 388.62 600.41C379.39 549.59 383.6 461.71 447.68 450.99V450.97Z" fill="#FFF9E9"/>
<path d="M111.56 466.72C106.06 467.19 100.4 468.42 96.0302 471.8C86.7302 479 86.4602 492.97 89.1402 504.42C94.2902 526.45 106.84 545.96 119.88 564.46C133.7 584.07 148.32 603.11 163.7 621.53C168.92 627.79 175.08 634.43 183.19 635.15C191.63 635.9 199.47 629.56 202.95 621.84C206.43 614.11 206.41 605.3 205.81 596.85C202.15 545.33 176.3 461.23 111.56 466.72Z" fill="#FFF9E9"/>
<path d="M141.31 516.57C138.45 539.05 136.72 562.03 142.4 584.13C148.08 606.22 162.08 627.6 184.5 639.12C197.29 645.7 212.06 648.75 226.75 650.67C254.33 654.27 282.38 654.16 310.22 652.95C342.26 651.55 374.77 648.58 404.34 637.81C411.88 635.06 419.37 631.71 424.87 626.44C432.5 619.15 435.45 609.07 437.26 599.33C443.52 565.63 439.22 531.03 431.15 497.59C418.5 445.17 396.28 394.02 361.18 349.97C348.78 334.41 334.02 319.25 314.02 311.79C301.21 307.01 287.01 305.72 273.09 305.93C245.15 306.36 204.68 313.86 190.02 337.31C169.99 369.33 162.07 411.46 153.83 446.86C148.46 469.91 144.27 493.18 141.3 516.57H141.31Z" fill="#FFF9E9"/>
<path d="M186.58 308.43C185.74 327.24 185.08 346.26 187.99 364.82C193.58 400.56 212.99 432.98 239.45 450.75C265.91 468.53 298.91 471.32 326.93 458.15C339.99 452.01 352.02 442.52 361.35 429.96C387.72 394.47 388.85 341.05 382.09 293.84C379.62 276.59 376.25 259.34 369.89 243.54C350.17 194.51 304.14 166.98 259.2 161.62C245.88 160.03 231.94 160.18 219.86 166.92C181.61 188.25 188.42 266.96 186.58 308.43Z" fill="#FFF9E9"/>
<path d="M220.84 364.42C249.02 390.74 288.05 410.21 325.54 401.19C366.06 391.44 393.93 345.5 383.87 305.06C377.11 277.89 355.9 255.77 330.78 243.41C305.66 231.05 276.98 227.54 249 228.39C231.14 228.93 212.53 231.46 197.85 241.63C155.67 270.86 193.17 338.58 220.84 364.42Z" fill="#DDD8CE"/>
<path d="M102.69 98.55C99.6398 99.56 96.4398 100.8 94.5398 103.39C92.9798 105.53 92.5498 108.28 92.2398 110.91C90.7498 123.26 90.5198 135.77 91.5598 148.16C91.6498 149.23 91.7598 150.34 92.3298 151.25C93.4298 153.03 95.7898 153.44 97.8598 153.73C122.53 157.2 146.14 167.84 165.07 184.03C169.8 188.07 175.47 192.78 181.46 191.12C184.77 190.21 187.24 187.5 189.48 184.9C197.9 175.15 206.03 164.92 211.3 153.16C216.57 141.4 218.79 127.85 215.05 115.51C212.42 106.82 206.47 98.83 198.51 94.34C190.73 89.95 179.63 91.01 170.85 90.31C147.89 88.47 124.55 91.25 102.69 98.53V98.55Z" fill="#BF946D"/>
<path d="M309.02 15.59C318.02 9.08004 329.07 3.98005 339.98 6.09005C353.22 8.64005 362.54 20.94 375.33 25.21C362.25 54.7 359.59 87.6 357.52 119.79C356.93 129 356.15 138.82 350.55 146.15C343.38 155.54 329.76 158.17 318.36 155.04C306.97 151.91 297.47 144.06 289.25 135.58C280.98 127.06 273.47 117.46 269.53 106.27C263.63 89.51 269.74 72.5 276.34 56.86C283.25 40.49 294.63 26 309.03 15.58L309.02 15.59Z" fill="#BF946D"/>
<path d="M406.85 208.29C399.03 186.77 387.46 166.91 375.24 147.73C363.23 128.87 350.52 110.51 337.14 92.6999C330.29 83.5799 323.18 74.5099 314.39 67.5599C296.2 53.1699 271.66 47.9799 250.51 54.4799C222.11 63.1999 161.37 71.5199 160.06 180.64C159.42 233.4 165.18 290.81 200.7 328.94C231.38 361.89 277.75 375.3 319.6 367.92C342.42 363.89 364.32 354.01 381.64 338.07C398.96 322.14 411.48 300.01 415.21 275.61C418.63 253.25 414.68 229.82 406.85 208.3V208.29Z" fill="#FFF9E9"/>
<path d="M248.44 100.13C242.52 96.31 235.56 94.34 228.57 93.52C213.98 91.82 199.15 95.04 185.9 101.14C182.39 102.76 177.27 105.38 173.82 106.8C164.85 124.23 159.35 147.43 158.94 180.98C158.53 215.02 161.89 250.66 173.08 282.15C179.09 279.24 184.75 275.12 189.98 270.99C210.91 254.47 231.38 234.83 238.56 209.15C240.31 202.9 241.22 196.43 243.31 190.29C247.84 177 257.61 166.05 262.62 152.93C269.65 134.51 265.01 110.83 248.45 100.14L248.44 100.13Z" fill="#BF946D"/>
<path d="M362.27 69.5101C367.24 73.5301 372.17 77.94 378.2 80.09C383.94 82.14 390.57 78.4801 392.76 75.0201C401 62.0201 402.55 46.2601 396.66 32.0401C393.65 24.7701 387.86 18.9701 381.48 14.3601C372.64 7.96005 362.43 3.47005 351.73 1.29005C341.92 -0.709945 331.4 -0.699945 322.24 3.33005C316.32 5.93005 302.41 15.8601 300.62 22.4101C300.42 23.1301 312.86 14.0701 328.74 27.0401C347.27 42.1701 347.66 57.6901 362.26 69.5001L362.27 69.5101Z" fill="#EDB68A"/>
<path d="M109.53 92.59C96.2001 97.84 67.6001 109.93 73.0101 151.84C74.5201 163.55 78.0001 174.97 83.4801 185.43C87.7001 193.47 92.9701 201.27 100.57 206.24C108.16 211.21 118.5 212.8 126.35 208.24C139.21 196.01 105.79 173.24 114 139.07C117.81 123.23 128.21 101.18 140.57 90.56C140.57 90.56 127.23 85.62 109.53 92.58V92.59Z" fill="#EDB68A"/>
<path d="M303.15 336.16C300.99 339.62 298.22 342.78 294.71 344.86C289.66 347.85 283.58 348.36 277.73 348.8C284.43 349.76 291.4 349.71 297.79 347.49C304.18 345.27 309.53 340.47 312.5 334.4C316.19 326.87 317.37 316.54 316.22 306.82C315.88 304 313.31 302.14 311.9 299.68C311.17 298.41 310.05 297.23 308.6 296.99C303.62 296.18 306.62 302.25 307.23 304.23C308.32 307.81 308.88 311.55 308.91 315.29C308.97 322.6 307.03 329.95 303.15 336.16Z" fill="#DDD8CE"/>
<path d="M334.9 327.7C338.58 329.46 342.61 330.64 346.69 330.51C352.55 330.32 357.96 327.49 363.14 324.72C358 329.12 352.09 332.83 345.51 334.38C338.92 335.93 331.84 334.76 326.07 331.23C318.92 326.85 312.37 318.77 308.14 309.95C306.91 307.39 308.08 304.44 307.95 301.6C307.88 300.14 308.19 298.54 309.29 297.56C313.05 294.2 313.78 300.93 314.33 302.93C315.33 306.54 316.87 309.99 318.85 313.17C322.72 319.37 328.31 324.53 334.91 327.69L334.9 327.7Z" fill="#DDD8CE"/>
<path d="M244.84 266.43C234.52 274.65 231.63 283.92 238.96 291.57C244.77 297.64 262.15 295.24 270.38 296.96C279.86 298.94 287.91 305.07 297.05 308.27C306.18 311.47 318.38 310.5 322.89 301.93C324.18 299.47 324.67 296.68 325.69 294.09C329.23 285.15 338.44 280.11 346.11 274.31C353.78 268.51 360.97 259.17 357.86 250.07C354.59 240.51 342.33 237.85 332.24 238.3C307.58 239.41 255.95 257.59 244.85 266.43H244.84Z" fill="#231F20"/>
<path opacity="0.29" d="M248.9 285.63C251.17 286.13 253.56 285.21 255.4 283.8C257.24 282.38 258.66 280.5 260.16 278.72C266.78 270.86 275.38 264.69 284.94 260.93C286.61 260.27 288.35 259.66 289.71 258.49C291.07 257.31 291.96 255.39 291.36 253.7C290.24 250.5 260.63 264.81 258 266.44C254.38 268.68 234.96 282.57 248.9 285.63Z" fill="#FFF9E9"/>
<path d="M180.48 515.11C184.81 529.66 188.24 544.45 191.67 559.24C197.1 582.67 200.68 619.35 206.11 642.77C207.54 648.94 210.97 642.13 215.13 646.91C219.29 651.69 226.93 654.08 232.11 650.43C237.03 646.96 237.66 640.01 237.61 633.99C237.14 574.32 216.17 516.37 187.54 464.01C185.88 460.97 180.45 450.16 175.81 450.62C171.12 451.08 170.83 465.44 170.79 469.24C170.61 484.96 176.04 500.24 180.47 515.11H180.48Z" fill="#DDD8CE"/>
<path d="M280.97 653.76C280.97 653.76 267.25 653.87 261.85 653.57C256.57 653.28 260.01 650.5 259.18 645.06C251.53 594.77 245.46 544.23 241 493.55C240.43 487.1 237.26 466.51 247.09 476.7C253.72 483.57 258.01 497.77 261.59 506.62C270.02 527.47 275.69 549.5 278.42 571.89C281.41 596.38 283.7 630.23 280.97 653.76Z" fill="#DDD8CE"/>
<path d="M178.42 428.83C173.27 437.1 172.73 447.43 173.63 457.13C175.25 474.57 180.98 491.32 186.4 507.98C200.91 552.61 213.43 597.88 223.9 643.62C224.68 647.01 225.52 650.55 227.83 653.15C229.97 655.55 233.08 656.81 236.14 657.78C241.23 659.41 246.5 660.47 251.82 660.95C252.79 661.04 253.82 661.1 254.7 660.68C256.35 659.89 268.54 654.45 268.56 652.62C268.89 618.88 267.53 590.5 268.28 557.39C269.03 524.28 265.19 490.68 252.85 459.96C248.58 449.33 242.99 438.71 233.74 431.95C225.58 425.98 214.13 422.89 204.75 419.33C194.88 415.59 184.08 419.75 178.43 428.82L178.42 428.83Z" fill="#FFF9E9"/>
<path d="M209.82 640.32C205.33 643.07 200.87 646.36 198.58 651.11C195.99 656.47 196.74 663.27 200.44 667.93C204.14 672.59 210.59 674.88 216.4 673.58C215.25 678.85 220.02 683.81 225.17 685.4C232.72 687.73 241.6 684.73 246.2 678.31C248.89 682.08 254.51 682.98 258.72 681.05C262.93 679.12 265.78 674.94 267.14 670.51C268.49 666.08 268.54 661.37 268.48 656.74C268.38 648.96 267.49 640.12 261.3 635.41C258.27 633.1 254.41 632.2 250.63 631.74C236.76 630.07 221.66 633.07 209.83 640.33L209.82 640.32Z" fill="#FFF9E9"/>
<path d="M216.39 673.58C216.39 673.58 215.83 671.48 217.45 666.78C219.07 662.07 225.21 655.16 225.21 655.16C225.21 655.16 217.84 657.45 214.79 662.48C211.13 668.52 210.31 673.69 210.31 673.69C210.31 673.69 210.85 674.36 213.1 674.49C215.35 674.62 216.39 673.58 216.39 673.58Z" fill="#DDD8CE"/>
<path d="M246.07 678.43C246.07 678.43 245.06 676.51 245.61 671.56C246.16 666.61 250.64 658.52 250.64 658.52C250.64 658.52 245.69 661.16 243.04 668.13C240.53 674.73 240.55 683.4 240.55 683.4C240.55 683.4 241.85 682.78 243.5 681.26C245.61 679.32 246.06 678.43 246.06 678.43H246.07Z" fill="#DDD8CE"/>
<path d="M400.54 509.72C396.96 524.47 394.45 539.45 391.61 554.36C383.91 594.73 383.91 614.58 383.91 640.28C383.91 646.62 376.56 638.13 372.64 643.12C368.72 648.11 361.22 650.88 355.86 647.5C350.77 644.29 349.79 637.38 349.53 631.36C346.95 571.74 364.95 512.8 390.87 459.05C392.37 455.93 397.24 444.86 401.9 445.08C406.61 445.3 407.62 459.63 407.86 463.42C408.84 479.11 404.2 494.65 400.53 509.72H400.54Z" fill="#DDD8CE"/>
<path d="M307.24 653.31C307.24 653.31 320.95 652.72 326.33 652.15C331.59 651.59 328.01 648.99 328.56 643.52C333.64 592.9 337.12 542.12 338.99 491.28C339.23 484.81 341.35 464.09 332.05 474.77C325.78 481.97 322.22 496.37 319.09 505.39C311.73 526.64 307.19 548.93 305.61 571.43C303.88 596.04 303.31 629.97 307.24 653.32V653.31Z" fill="#DDD8CE"/>
<path d="M398.19 423.44C403.76 431.44 404.82 441.72 404.42 451.46C403.69 468.96 398.82 485.99 394.26 502.9C382.05 548.21 371.85 594.06 363.72 640.28C363.12 643.7 362.46 647.29 360.28 650C358.27 652.5 355.22 653.92 352.22 655.05C347.22 656.93 342.01 658.27 336.73 659.02C335.76 659.16 334.74 659.27 333.84 658.89C332.15 658.19 319.7 653.37 319.59 651.55C317.54 617.87 317.46 589.45 315.01 556.43C312.57 523.41 314.69 489.65 325.46 458.34C329.18 447.51 334.23 436.62 343.12 429.4C350.97 423.03 362.24 419.35 371.43 415.32C381.1 411.08 392.09 414.68 398.2 423.46L398.19 423.44Z" fill="#FFF9E9"/>
<path d="M377.61 636.26C382.23 638.78 386.86 641.84 389.39 646.46C392.25 651.68 391.85 658.51 388.39 663.36C384.94 668.2 378.61 670.82 372.74 669.82C374.15 675.02 369.65 680.22 364.58 682.07C357.16 684.78 348.13 682.24 343.21 676.06C340.72 679.97 335.15 681.14 330.84 679.43C326.53 677.72 323.48 673.69 321.9 669.34C320.32 664.98 320.03 660.28 319.86 655.65C319.56 647.88 320 639 325.94 633.98C328.85 631.52 332.66 630.42 336.41 629.77C350.18 627.4 365.41 629.62 377.59 636.27L377.61 636.26Z" fill="#FFF9E9"/>
<path d="M343.35 676.17C343.35 676.17 344.26 674.2 343.46 669.29C342.66 664.38 337.77 656.53 337.77 656.53C337.77 656.53 342.85 658.92 345.85 665.74C348.69 672.2 349.12 680.87 349.12 680.87C349.12 680.87 347.79 680.32 346.06 678.88C343.85 677.05 343.36 676.18 343.36 676.18L343.35 676.17Z" fill="#DDD8CE"/>
<path d="M372.75 669.81C372.75 669.81 373.22 665.66 371.38 661.06C369.54 656.46 364.07 651.56 364.07 651.56C364.07 651.56 372.51 655.2 374.85 658.21C378.62 663.07 379.62 669.4 379.62 669.4C379.62 669.4 379.36 669.81 376.54 669.95C373.71 670.09 372.75 669.8 372.75 669.8V669.81Z" fill="#DDD8CE"/>
<path d="M145.62 519.08C135.67 513.14 120.72 516.6 113.57 507.48C104.87 496.38 112.48 481.67 101.86 470.37C101.56 470.05 101.25 469.75 100.95 469.44C99.1899 470.15 97.5299 471.06 96.0199 472.23C86.7199 479.43 86.4499 493.4 89.1299 504.85C94.2799 526.88 106.83 546.39 119.87 564.89C124.24 571.08 128.69 577.21 133.21 583.29C136.17 579.81 138.9 576.1 141.57 572.4C147.47 564.22 153.39 555.63 155.35 545.74C157.31 535.85 154.28 524.25 145.62 519.09V519.08Z" fill="#BF946D"/>
<path d="M461.18 640.14C468.09 645.56 475.22 651.9 476.96 660.5C478.22 666.73 475.63 674.16 469.71 676.46C469.55 681 465.75 684.77 461.47 686.3C451.25 689.94 440.5 683.23 431.72 676.84C419.67 668.07 407.61 659.31 395.56 650.54C389.83 646.37 383.47 640.95 383.93 633.87C384.16 630.3 386.19 627.08 388.56 624.4C396.13 615.84 411.98 608.77 423.28 613.71C436.54 619.5 449.83 631.23 461.18 640.13V640.14Z" fill="#FFF9E9"/>
<path d="M469.72 676.47C469.72 676.47 470.75 672.85 467.65 667.68C464.55 662.51 458.51 658.67 458.51 658.67C458.51 658.67 465.73 660.42 469.17 663.18C472.6 665.94 474.14 673.18 474.14 673.18C474.14 673.18 473.78 674.76 472.41 675.7C471.04 676.63 469.73 676.47 469.73 676.47H469.72Z" fill="#DDD8CE"/>
<path d="M189.28 199.25C189.28 199.25 188.58 180.08 205.66 173.87C223.67 167.32 233.09 179.6 233.09 179.6C233.09 179.6 216.91 156.3 199.52 160.79C175.06 167.09 189.28 199.25 189.28 199.25Z" fill="#231F20"/>
<path d="M348.77 145.2C348.77 145.2 333.98 132.98 318.66 142.76C302.5 153.07 306.53 168.02 306.53 168.02C306.53 168.02 297.88 141.01 312.02 129.93C331.9 114.35 348.78 145.2 348.78 145.2H348.77Z" fill="#231F20"/>
<path d="M308.45 408.61C308.45 408.61 306.56 408.61 306.45 410.96C306.34 413.24 307.64 440.92 307.77 442.64C308.05 446.42 310.42 445.92 310.42 445.92L315.25 443.78L318.15 430.33L315.98 410.12L311.21 408.44L308.46 408.6L308.45 408.61Z" fill="#CE9736"/>
<path d="M173.27 323.15C173.27 323.15 183.96 409.7 289.45 411.18C385.93 412.53 397.61 344.8 397.61 344.8V378.9C397.61 378.9 385.93 441.58 297.18 445.06C192.21 449.18 170.79 359.88 170.79 359.88L173.27 323.14V323.15Z" fill="#F45C4D"/>
<path d="M355.51 474.17C358.63 472.63 361.3 469.92 362.2 466.55C363.1 463.19 361.96 459.21 359.07 457.27C356.73 455.7 353.64 455.62 350.95 456.46C348.48 457.23 345.24 458.97 342.14 461.22H291.38C287.79 458.35 283.8 456.08 280.88 455.18C278.19 454.35 275.1 454.43 272.76 455.99C269.87 457.93 268.73 461.9 269.63 465.27C270.53 468.63 273.19 471.35 276.32 472.89C271.29 474.32 268.58 480.05 268.56 485.28C268.54 489.41 270.19 493.97 273.95 495.68C278.47 497.73 283.64 494.85 287.46 491.69C288.2 491.08 288.92 490.45 289.63 489.81H340.82C341.97 490.9 343.15 491.96 344.38 492.97C348.2 496.14 353.37 499.01 357.89 496.96C361.65 495.25 363.3 490.69 363.28 486.56C363.26 481.33 360.55 475.6 355.52 474.17H355.51Z" fill="#F2BC44"/>
<path d="M276.18 472.82C276.79 472.47 277.39 471.74 276.31 470.88C273.18 469.34 270.52 466.63 269.62 463.26C269.5 462.83 269.42 462.39 269.37 461.94C269.25 463.05 269.33 464.19 269.62 465.27C270.33 467.9 272.84 471.62 276.18 472.82Z" fill="#CE9736"/>
<path d="M355.51 472.16C354.18 473.28 354.43 474.17 355.51 474.17C359.48 472.54 361.49 469.19 362.2 466.55C362.49 465.47 362.57 464.33 362.45 463.22C362.4 463.67 362.32 464.11 362.2 464.54C361.3 467.9 358.64 470.62 355.51 472.16Z" fill="#CE9736"/>
<path d="M357.88 494.95C353.36 497 348.19 494.12 344.37 490.96C343.15 489.95 341.96 488.89 340.81 487.8H289.62C288.91 488.44 288.19 489.07 287.45 489.68C283.63 492.85 278.46 495.72 273.94 493.67C270.49 492.1 268.82 488.14 268.58 484.3C268.56 484.63 268.55 484.95 268.55 485.28C268.53 489.41 270.18 493.97 273.94 495.68C278.46 497.73 283.63 494.85 287.45 491.69C288.19 491.08 288.91 490.45 289.62 489.81H340.81C341.96 490.9 343.14 491.96 344.37 492.97C348.19 496.14 353.36 499.01 357.88 496.96C361.64 495.25 363.29 490.69 363.27 486.56C363.27 486.24 363.26 485.91 363.23 485.58C362.99 489.41 361.32 493.38 357.87 494.95H357.88Z" fill="#CE9736"/>
<path opacity="0.48" d="M270.68 482.43C269.84 485.34 270.75 488.81 273.23 490.55C273.82 490.96 274.55 491.29 275.25 491.1C275.92 490.92 276.4 490.29 276.59 489.62C276.78 488.95 276.72 488.24 276.64 487.55C276.49 486.32 276.28 485.09 276.37 483.86C276.46 482.63 276.92 481.36 277.88 480.59C278.97 479.72 280.74 479.38 281.03 478.01C281.25 476.96 280.33 475.95 279.29 475.68C275.48 474.7 271.61 479.19 270.68 482.42V482.43Z" fill="#FFF9E9"/>
<path opacity="0.48" d="M272.47 460.6C272.98 460.87 273.61 460.79 274.14 460.57C274.67 460.35 275.14 460 275.65 459.73C277.51 458.71 279.83 458.69 281.8 459.46C282.37 459.68 283.09 459.95 283.54 459.54C283.85 459.26 283.87 458.77 283.69 458.39C283.51 458.02 283.18 457.75 282.83 457.52C281.24 456.49 279.25 456.17 277.37 456.44C276.39 456.58 269.27 458.93 272.47 460.6Z" fill="#FFF9E9"/>
<path opacity="0.48" d="M348.33 459.35C347.8 459.72 347.25 460.1 346.9 460.64C346.55 461.19 346.46 461.94 346.84 462.46C347.35 463.14 348.43 463.09 349.18 462.68C349.93 462.27 350.5 461.6 351.24 461.16C352.36 460.49 353.76 460.42 355.05 460.64C355.59 460.73 356.13 460.87 356.68 460.85C357.23 460.84 357.81 460.64 358.13 460.2C358.64 459.51 358.31 458.46 357.64 457.92C356.97 457.39 356.06 457.26 355.2 457.24C352.52 457.16 350.54 457.83 348.32 459.34L348.33 459.35Z" fill="#FFF9E9"/>
<path d="M308.45 408.61C308.45 408.61 313.72 407.47 314.1 417.08C314.48 426.69 315.01 439.99 314.1 442C312.41 445.73 310.41 445.92 310.41 445.92L321.28 444.85C321.28 444.85 323.14 443.36 323.43 439.06C323.81 433.53 322.45 414.82 322.18 412.49C321.67 408.03 319.03 407.46 319.03 407.46L308.44 408.6L308.45 408.61Z" fill="#F2BC44"/>
<path opacity="0.48" d="M313.67 409.31C313.43 409.8 313.58 410.4 313.85 410.87C314.13 411.34 314.52 411.73 314.83 412.18C315.51 413.17 315.73 414.4 315.93 415.59C316.15 416.89 316.38 418.19 316.6 419.49C316.65 419.8 316.81 420.2 317.12 420.17C317.65 418.94 317.51 417.53 317.36 416.2C317.19 414.67 317.01 413.13 316.84 411.6C316.78 411.03 316.71 410.45 316.46 409.94C316.06 409.11 314.26 408.08 313.66 409.31H313.67Z" fill="#FFF9E9"/>
<path d="M308.21 448.69C307.56 451.33 308.38 452.71 309.38 453.73C311.75 456.17 317.62 456.73 320.46 455.39C323.12 454.14 324.2 451.19 324.17 448.85C324.15 447.34 323.41 445.87 322.27 444.88C321.13 443.89 319.62 443.36 318.11 443.31C317.47 443.29 316.68 443.47 316.51 444.09C316.31 444.86 317.23 445.4 317.97 445.68C318.9 446.03 319.85 446.47 320.42 447.28C321.35 448.6 320.88 450.57 319.68 451.66C318.48 452.75 316.71 452.64 315.1 452.46C311.85 452.09 311.47 449.32 312.04 448.17C312.61 447.03 313.55 446.12 314.38 445.15C314.56 444.93 314.76 444.67 314.69 444.39C314.55 443.82 313.69 444.03 313.21 444.37C311.67 445.44 308.21 446.34 308.21 448.68V448.69Z" fill="#F2BC44"/>
<path d="M313.73 450.49C313.28 451.28 313.28 452.25 313.32 453.16C313.43 455.48 313.68 457.78 314.09 460.07C314.32 461.39 314.69 462.83 315.8 463.57C316.94 464.34 318.68 463.99 319.44 462.84C320.03 461.94 320.01 460.79 319.98 459.72C319.91 457.6 319.84 455.48 319.76 453.37C319.73 452.58 319.7 451.76 319.32 451.06C318.46 449.47 314.71 448.77 313.72 450.5L313.73 450.49Z" fill="#F2BC44"/>
<path d="M319.91 455.66C320.9 455.33 321.7 454.6 322.48 453.89C322.14 453.89 321.81 453.72 321.53 453.53C320.78 453.03 320.12 452.33 319.87 451.46C319.88 451.5 319.63 451.66 319.6 451.72C319.55 451.85 319.62 452.09 319.64 452.22C319.68 452.6 319.72 452.97 319.76 453.35C319.83 454.12 319.88 454.88 319.91 455.65V455.66Z" fill="#CE9736"/>
<path opacity="0.48" d="M314.54 451.41C314.3 452.03 314.39 452.71 314.47 453.37C314.65 454.73 314.83 456.08 315.02 457.44C315.11 458.09 315.2 458.76 315.58 459.3C315.77 459.57 316.18 459.8 316.41 459.56C316.49 459.48 316.53 459.36 316.55 459.24C316.73 458.4 316.58 457.52 316.47 456.67C316.36 455.75 316.29 454.83 316.26 453.9C316.24 453.17 316.35 452.29 317.01 451.99C317.29 451.86 317.72 451.77 317.7 451.46C317.69 451.25 317.46 451.14 317.26 451.06C316.09 450.62 315.3 450.05 314.52 451.41H314.54Z" fill="#FFF9E9"/>
</g>
<defs>
<clipPath id="clip0_17_2">
<rect width="570.09" height="706.19" fill="white"/>
</clipPath>
</defs>
</svg>
